<mxfile host="65bd71144e">
    <diagram id="mGqBOApeeGtkTvTiNo7e" name="페이지-1">
        <mxGraphModel dx="579" dy="322" grid="1" gridSize="10" guides="1" tooltips="1" connect="1" arrows="1" fold="1" page="1" pageScale="1" pageWidth="1169" pageHeight="827" background="none" math="0" shadow="0">
            <root>
                <mxCell id="0"/>
                <mxCell id="1" parent="0"/>
                <mxCell id="108" value="" style="shape=ext;double=1;rounded=0;whiteSpace=wrap;html=1;fontColor=#F0F0F0;strokeColor=default;fillColor=default;" parent="1" vertex="1">
                    <mxGeometry x="11" y="80" width="249" height="220" as="geometry"/>
                </mxCell>
                <mxCell id="149" value="DEFINE" style="swimlane;fontStyle=0;align=center;verticalAlign=top;childLayout=stackLayout;horizontal=1;startSize=26;horizontalStack=0;resizeParent=1;resizeLast=0;collapsible=1;marginBottom=0;rounded=0;shadow=0;strokeWidth=1;spacingTop=0;" parent="1" vertex="1">
                    <mxGeometry x="28" y="100" width="212" height="180" as="geometry">
                        <mxRectangle x="220" y="90" width="160" height="26" as="alternateBounds"/>
                    </mxGeometry>
                </mxCell>
                <mxCell id="150" value="+ LuxLayer : int" style="text;align=left;verticalAlign=top;spacingLeft=4;spacingRight=4;overflow=hidden;rotatable=0;points=[[0,0.5],[1,0.5]];portConstraint=eastwest;rounded=0;shadow=0;html=0;" parent="149" vertex="1">
                    <mxGeometry y="26" width="212" height="26" as="geometry"/>
                </mxCell>
                <mxCell id="156" value="+ GroundLayer : int" style="text;align=left;verticalAlign=top;spacingLeft=4;spacingRight=4;overflow=hidden;rotatable=0;points=[[0,0.5],[1,0.5]];portConstraint=eastwest;rounded=0;shadow=0;html=0;" vertex="1" parent="149">
                    <mxGeometry y="52" width="212" height="26" as="geometry"/>
                </mxCell>
                <mxCell id="155" value=" " style="text;align=left;verticalAlign=top;spacingLeft=4;spacingRight=4;overflow=hidden;rotatable=0;points=[[0,0.5],[1,0.5]];portConstraint=eastwest;rounded=0;shadow=0;html=0;" vertex="1" parent="149">
                    <mxGeometry y="78" width="212" height="26" as="geometry"/>
                </mxCell>
                <mxCell id="157" value="- mainCam : static Camera" style="text;align=left;verticalAlign=top;spacingLeft=4;spacingRight=4;overflow=hidden;rotatable=0;points=[[0,0.5],[1,0.5]];portConstraint=eastwest;rounded=0;shadow=0;html=0;" vertex="1" parent="149">
                    <mxGeometry y="104" width="212" height="26" as="geometry"/>
                </mxCell>
                <mxCell id="158" value="&lt;&lt;get&gt;&gt; + MainCam : static Camera" style="text;align=left;verticalAlign=top;spacingLeft=4;spacingRight=4;overflow=hidden;rotatable=0;points=[[0,0.5],[1,0.5]];portConstraint=eastwest;rounded=0;shadow=0;html=0;" vertex="1" parent="149">
                    <mxGeometry y="130" width="212" height="26" as="geometry"/>
                </mxCell>
                <mxCell id="154" value="" style="line;html=1;strokeWidth=1;align=left;verticalAlign=middle;spacingTop=-1;spacingLeft=3;spacingRight=3;rotatable=0;labelPosition=right;points=[];portConstraint=eastwest;" parent="149" vertex="1">
                    <mxGeometry y="156" width="212" height="8" as="geometry"/>
                </mxCell>
            </root>
        </mxGraphModel>
    </diagram>
</mxfile>